<?xml version="1.0" encoding="utf-8"?>
<svg viewBox="208.101 127.5904 65.0781 117.7057" xmlns="http://www.w3.org/2000/svg">
  <g transform="matrix(0.9999999999999999, 0, 0, 0.9999999999999999, -7.349786867943209, -205.0546295203958)">
    <g>
      <path style="fill:#63625D;" d="M267.741,447.3l-0.966,0.29c-12.253,3.681-25.318,3.681-37.572,0l-0.966-0.29 c-3.381-1.016-5.695-4.128-5.695-7.658v-91.677c0-8.461,6.859-15.32,15.32-15.32h20.255c8.461,0,15.32,6.859,15.32,15.32v91.677 C273.436,443.172,271.121,446.284,267.741,447.3z"/>
      <path style="fill:#52534D;" d="M262.168,433.762h-34.9l-2.074,11.803c0.859,0.776,1.882,1.386,3.043,1.734l0.966,0.29 c12.253,3.682,25.319,3.682,37.572,0l0.966-0.29c0.481-0.145,0.933-0.341,1.367-0.566l-3.192-10.216 C265.403,434.878,263.885,433.762,262.168,433.762z"/>
      <path style="fill:#52534D;" d="M231.622,434.589l-1.484-49.356l-1.519-18.925l-5.663-21.907c-0.273,1.154-0.42,2.325-0.415,3.564 v91.677c0.009,2.304,1.198,4.439,2.829,5.914l4.237-6.423L231.622,434.589z"/>
      <g>
        <path style="fill:#E76957;" d="M227.002,439.874l-4.46-1.21v0.977c0,3.53,2.315,6.642,5.695,7.658l0.966,0.29 c1.824,0.548,3.668,1.004,5.523,1.389l-4.827-7.048C229.208,440.923,228.181,440.194,227.002,439.874z"/>
        <path style="fill:#F9948A;" d="M222.685,441.122c0.545,2.894,2.654,5.307,5.552,6.178l0.966,0.29 c0.904,0.272,1.814,0.52,2.727,0.749C229.536,442.241,224.823,441.245,222.685,441.122z"/>
      </g>
      <g>
        <path style="fill:#E76957;" d="M268.976,439.874l4.46-1.21v0.977c0,3.53-2.315,6.642-5.695,7.658l-0.966,0.29 c-1.824,0.548-3.668,1.004-5.523,1.389l4.827-7.048C266.77,440.923,267.797,440.194,268.976,439.874z"/>
        <path style="fill:#F9948A;" d="M273.293,441.122c-0.545,2.894-2.654,5.307-5.552,6.178l-0.966,0.29 c-0.904,0.272-1.814,0.52-2.727,0.749C266.442,442.241,271.155,441.245,273.293,441.122z"/>
      </g>
      <path style="fill:#456168;" d="M229.029,357.582"/>
      <path style="fill:#3F4342;" d="M265.448,386.078l-2.706-0.651c-9.58-2.304-19.568-2.326-29.159-0.064l-3.058,0.721 c-0.646,0.152-1.277-0.303-1.337-0.964l-2.033-21.514c-0.045-0.503,0.293-0.96,0.787-1.064l7.144-1.507 c8.626-1.82,17.538-1.805,26.158,0.046l6.795,1.459c0.492,0.106,0.828,0.562,0.783,1.064l-2.033,21.512 C266.73,385.778,266.095,386.233,265.448,386.078z"/>
      <path style="fill:#343434;" d="M241.307,360.052c-2.084,0.225-4.161,0.548-6.22,0.983l-7.144,1.507 c-0.494,0.104-0.832,0.561-0.786,1.064l2.033,21.514c0.06,0.661,0.691,1.116,1.337,0.964l3.058-0.721 c2.551-0.602,5.131-1.037,7.723-1.315V360.052z"/>
      <path style="fill:#343434;" d="M227.943,366.245l7.144-1.507c8.626-1.82,17.538-1.804,26.158,0.046l6.795,1.459 c0.204,0.044,0.371,0.158,0.505,0.3l0.278-2.939c0.045-0.501-0.291-0.958-0.783-1.064l-6.795-1.459 c-8.62-1.851-17.532-1.866-26.158-0.046l-7.144,1.507c-0.494,0.104-0.832,0.561-0.786,1.064l0.278,2.939 C227.569,366.402,227.737,366.288,227.943,366.245z"/>
      <path style="fill:#343434;" d="M224.673,378.061l2.325,6.007c0.883,2.282,1.35,4.703,1.376,7.15l0.28,30.678 c0.014,1.326-0.265,2.639-0.817,3.844l-3.227,7.039c-0.083,0.181-0.355,0.122-0.354-0.077l0.058-54.574 C224.315,377.923,224.599,377.87,224.673,378.061z"/>
      <polygon style="fill:#1E1E1E;" points="224.282,408.892 228.55,410.386 228.535,408.804 224.284,407.289 &#9;&#9;&#9;"/>
      <path style="fill:#3F4342;" d="M271.305,378.061l-2.325,6.007c-0.883,2.282-1.349,4.703-1.376,7.15l-0.28,30.678 c-0.014,1.326,0.265,2.639,0.817,3.844l3.227,7.039c0.083,0.181,0.355,0.122,0.354-0.077l-0.058-54.574 C271.664,377.923,271.379,377.87,271.305,378.061z"/>
      <polygon style="fill:#343434;" points="267.428,410.386 271.696,408.892 271.695,407.289 267.443,408.804 &#9;&#9;&#9;"/>
      <g>
        <path style="fill:#343434;" d="M225.744,380.824l-6.757,2.568c-1.35,0.51-2.858-0.172-3.367-1.522l0,0 c-0.51-1.35,0.172-2.858,1.522-3.367l6.757-2.568L225.744,380.824z"/>
        <path style="fill:#3F4342;" d="M270.2,380.885l6.796,2.47c1.351,0.508,2.858-0.175,3.365-1.526l0,0 c0.508-1.351-0.175-2.857-1.526-3.365l-6.796-2.47L270.2,380.885z"/>
      </g>
      <path style="fill:#343434;" d="M262.135,438.009l-13.998-0.545c-0.027-0.001-0.054-0.001-0.081,0l-13.998,0.545 c-0.467,0.018-0.864,0.345-0.972,0.799l-0.473,1.988c-0.156,0.654,0.34,1.282,1.013,1.282h14.471h14.471 c0.672,0,1.169-0.628,1.013-1.282l-0.473-1.988C263,438.354,262.602,438.028,262.135,438.009z"/>
      <g>
        <path style="fill:#E3E5E1;" d="M233.484,427.013L233.484,427.013c-0.815,0-1.475-0.66-1.475-1.475v-31.47 c0-0.815,0.661-1.475,1.475-1.475l0,0c0.815,0,1.475,0.66,1.475,1.475v31.47C234.96,426.353,234.299,427.013,233.484,427.013z"/>
        <path style="fill:#FFFFFF;" d="M262.495,427.013L262.495,427.013c-0.815,0-1.475-0.66-1.475-1.475v-31.47 c0-0.815,0.66-1.475,1.475-1.475l0,0c0.815,0,1.475,0.66,1.475,1.475v31.47C263.97,426.353,263.31,427.013,262.495,427.013z"/>
      </g>
      <path style="fill:#FFD70E;" d="M222.604,346.729h4.565c0,0,1.042-9.556,9.339-9.556v-4.46 C229.09,333.364,223.199,339.296,222.604,346.729z"/>
      <path style="fill:#FFD70E;" d="M273.436,346.729h-4.565c0,0-1.042-9.556-9.339-9.556v-4.46 C266.951,333.364,272.841,339.296,273.436,346.729z"/>
    </g>
  </g>
</svg>