<?xml version="1.0" encoding="utf-8"?>
<svg viewBox="72.8348 119.1892 65.0792 121.223" xmlns="http://www.w3.org/2000/svg">
  <g style="" transform="matrix(0.9999999999999999, 0, 0, 0.9695510864257811, -142.61555693470768, -56.81240929383648)">
    <g>
      <g>
        <path style="fill:#3F4342;" d="M226.009,290.462l-2.974,0.005c-1.845,0.003-3.342-1.49-3.345-3.335l-0.027-16.765 c-0.003-1.845,1.49-3.342,3.335-3.345l2.974-0.005c1.845-0.003,3.343,1.49,3.345,3.335l0.027,16.765 C229.346,288.961,227.854,290.459,226.009,290.462z"/>
        <path style="fill:#3F4342;" d="M273.134,290.387l-2.974,0.005c-1.845,0.003-3.342-1.49-3.345-3.335l-0.027-16.765 c-0.003-1.845,1.49-3.342,3.335-3.345l2.974-0.005c1.845-0.003,3.342,1.49,3.345,3.335l0.027,16.765 C276.472,288.886,274.979,290.384,273.134,290.387z"/>
      </g>
      <g>
        <path style="fill:#3F4342;" d="M226.009,224.22l-2.974,0.005c-1.845,0.003-3.342-1.49-3.345-3.335l-0.027-16.765 c-0.003-1.845,1.49-3.342,3.335-3.345l2.974-0.005c1.845-0.003,3.343,1.49,3.345,3.335l0.027,16.765 C229.346,222.719,227.854,224.217,226.009,224.22z"/>
        <path style="fill:#3F4342;" d="M273.134,224.145l-2.974,0.005c-1.845,0.003-3.342-1.49-3.345-3.335l-0.027-16.765 c-0.003-1.845,1.49-3.342,3.335-3.345l2.974-0.005c1.845-0.003,3.342,1.49,3.345,3.335l0.027,16.765 C276.472,222.644,274.979,224.142,273.134,224.145z"/>
      </g>
      <path style="fill:#4485BB;" d="M273.468,290.664l-50.765,0.081c-1.365,0.002-2.469,1.11-2.467,2.475l0.003,2.017 c0.01,6.263,5.095,11.332,11.358,11.322l33.027-0.053c6.263-0.01,11.332-5.095,11.322-11.358l-0.003-2.017 C275.94,291.767,274.832,290.662,273.468,290.664z"/>
      <path style="fill:#4485BB;" d="M273.468,197.421l-50.765-0.081c-1.365-0.002-2.469-1.11-2.467-2.475v0 c0.012-7.377,6.001-13.348,13.378-13.336l28.993,0.046c7.377,0.012,13.348,6.001,13.336,13.378l0,0 C275.94,196.319,274.832,197.423,273.468,197.421z"/>
      <path style="fill:#519FDC;" d="M268.841,301.708L267.876,302c-12.248,3.701-27.287,3.725-39.546,0.063l-0.966-0.289 c-3.382-1.01-5.702-4.119-5.708-7.649l0.834-96.266c-0.014-8.461,6.834-15.33,15.295-15.344l20.255-0.032 c8.461-0.013,15.331,6.835,15.344,15.295l1.14,96.263C274.53,297.571,272.22,300.687,268.841,301.708z"/>
      <path style="fill:#4485BB;" d="M231.707,284.469l-1.562-49.354l-1.549-18.922l-5.697-21.898 c-0.271,1.155-0.416,2.326-0.409,3.564l-0.834,96.266c0.013,2.304,1.205,4.438,2.838,5.91l5.37-12.313L231.707,284.469z"/>
      <polygon style="fill:#FFFFFF;" points="274.39,284.372 273.718,228.855 271.098,225.548 268.01,212.362 227.128,213.494 &#10;&#9;&#9;&#9;&#9;224.478,225.622 222.253,228.516 221.758,284.456 224.339,282.565 224.339,282.594 229.863,287.722 267.179,287.576 &#10;&#9;&#9;&#9;&#9;271.449,282.596 271.45,282.49 &#9;&#9;&#9;"/>
      <polygon style="fill:#E3E5E1;" points="247.962,212.917 227.128,213.494 224.478,225.622 222.253,228.516 221.758,284.456 &#10;&#9;&#9;&#9;&#9;224.339,282.565 224.339,282.594 229.863,287.722 248.08,287.651 &#9;&#9;&#9;"/>
      <g>
        <path style="fill:#E76957;" d="M226.116,294.351l-4.462-1.203l0.002,0.977c0.006,3.53,2.325,6.639,5.708,7.649l0.966,0.289 c1.825,0.545,3.669,0.998,5.525,1.38l-4.839-7.04C228.324,295.396,227.296,294.668,226.116,294.351z"/>
        <path style="fill:#F9948A;" d="M221.801,295.605c0.549,2.893,2.663,5.303,5.562,6.169l0.966,0.289 c0.905,0.27,1.814,0.517,2.728,0.745C228.653,296.713,223.939,295.724,221.801,295.605z"/>
      </g>
      <g>
        <path style="fill:#E76957;" d="M270.064,294.281l4.458-1.217l0.002,0.977c0.006,3.53-2.304,6.646-5.683,7.667L267.876,302 c-1.823,0.551-3.666,1.01-5.521,1.398l4.816-7.056C267.86,295.333,268.886,294.602,270.064,294.281z"/>
        <path style="fill:#F9948A;" d="M274.384,295.521c-0.54,2.895-2.646,5.311-5.543,6.187L267.876,302 c-0.904,0.273-1.813,0.523-2.726,0.754C267.534,296.652,272.246,295.648,274.384,295.521z"/>
      </g>
      <g>
        <path style="fill:#FFD70E;" d="M223.086,193.635l2.474-0.911c4.036-1.485,7.52-4.17,9.984-7.694l1.741-2.489 C230.514,182.771,224.867,187.382,223.086,193.635z"/>
      </g>
      <g>
        <path style="fill:#FFD70E;" d="M272.833,193.556l-2.477-0.903c-4.04-1.472-7.533-4.146-10.009-7.662l-1.749-2.484 C265.371,182.715,271.032,187.309,272.833,193.556z"/>
      </g>
      <path style="fill:#456168;" d="M228.992,207.467"/>
      <g>
        <path style="fill:#3F4342;" d="M266.651,288.272l-7.159,1.117c-7.559,1.18-15.254,1.192-22.816,0.036l-7.163-1.095 c-0.335-0.051-0.569-0.358-0.531-0.694l1.263-11.135c0.041-0.358,0.373-0.61,0.729-0.551l4.788,0.791 c8.147,1.346,16.46,1.333,24.603-0.039l4.785-0.806c0.356-0.06,0.689,0.19,0.731,0.549l1.299,11.131 C267.219,287.913,266.985,288.22,266.651,288.272z"/>
        <path style="fill:#343434;" d="M259.475,279.147l6.601-1.03l-0.195-1.671c-0.042-0.358-0.375-0.609-0.731-0.548l-4.785,0.806 c-8.143,1.372-16.456,1.385-24.603,0.039l-4.788-0.791c-0.356-0.059-0.688,0.193-0.729,0.551l-0.19,1.672l6.604,1.009 C244.221,280.339,251.916,280.326,259.475,279.147z"/>
        <path style="fill:#343434;" d="M241.382,277.444c-1.879-0.166-3.754-0.394-5.62-0.702l-4.788-0.791 c-0.356-0.059-0.688,0.193-0.729,0.551l-1.263,11.135c-0.038,0.337,0.196,0.643,0.531,0.694l7.163,1.095 c1.57,0.24,3.147,0.417,4.727,0.557L241.382,277.444z"/>
      </g>
      <path style="fill:#343434;" d="M224.669,227.952l2.335,6.003c0.887,2.28,1.357,4.701,1.388,7.147l0.329,30.678 c0.017,1.326-0.26,2.639-0.811,3.846l-3.216,7.044c-0.083,0.181-0.355,0.122-0.355-0.077l-0.029-54.574 C224.31,227.814,224.594,227.761,224.669,227.952z"/>
      <polygon style="fill:#1E1E1E;" points="224.326,258.784 228.597,260.271 228.58,258.689 224.326,257.181 &#9;&#9;&#9;"/>
      <path style="fill:#3F4342;" d="M271.3,227.878l-2.316,6.01c-0.88,2.283-1.342,4.705-1.365,7.152l-0.231,30.679 c-0.012,1.326,0.269,2.638,0.823,3.843l3.238,7.034c0.083,0.181,0.355,0.121,0.354-0.078l-0.145-54.574 C271.659,227.739,271.374,227.687,271.3,227.878z"/>
      <polygon style="fill:#343434;" points="267.475,260.209 271.741,258.709 271.737,257.105 267.487,258.627 &#9;&#9;&#9;"/>
      <g>
        <path style="fill:#4485BB;" d="M226.332,230.508l-7.341,2.784c-1.349,0.512-2.858-0.167-3.37-1.517l0,0 c-0.512-1.349,0.167-2.858,1.517-3.37l7.34-2.784L226.332,230.508z"/>
        <path style="fill:#519FDC;" d="M269.647,230.411l7.353,2.751c1.352,0.506,2.857-0.18,3.363-1.531l0,0 c0.506-1.352-0.18-2.857-1.531-3.363l-7.353-2.752L269.647,230.411z"/>
      </g>
      <g>
        <polygon style="fill:#4485BB;" points="258.588,182.541 267.96,212.428 262.819,211.28 &#9;&#9;&#9;&#9;"/>
        <polygon style="fill:#4485BB;" points="237.286,182.541 227.913,212.428 233.055,211.28 &#9;&#9;&#9;&#9;"/>
      </g>
      <g>
        <path style="fill:#3F4342;" d="M265.456,235.904l-2.707-0.646c-9.584-2.289-19.572-2.295-29.159-0.017l-3.056,0.726 c-0.646,0.153-1.278-0.301-1.339-0.962l-2.067-21.51c-0.046-0.503,0.291-0.961,0.785-1.066l7.142-1.519 c8.623-1.834,17.536-1.832,26.158,0.005l6.797,1.448c0.492,0.105,0.829,0.561,0.785,1.062l-1.999,21.515 C266.738,235.602,266.104,236.059,265.456,235.904z"/>
        <path style="fill:#343434;" d="M241.273,209.917c-2.084,0.229-4.16,0.555-6.219,0.993l-7.142,1.519 c-0.494,0.105-0.831,0.563-0.785,1.066l2.067,21.51c0.061,0.661,0.693,1.115,1.339,0.962l3.056-0.726 c2.55-0.606,5.129-1.045,7.721-1.328L241.273,209.917z"/>
        <path style="fill:#343434;" d="M227.919,216.131l7.142-1.519c8.623-1.834,17.536-1.832,26.158,0.005l6.797,1.448 c0.204,0.044,0.371,0.157,0.506,0.299l0.273-2.939c0.044-0.502-0.292-0.958-0.785-1.062l-6.797-1.448 c-8.622-1.837-17.535-1.839-26.158-0.005l-7.142,1.519c-0.494,0.105-0.831,0.563-0.785,1.066l0.282,2.938 C227.546,216.289,227.714,216.174,227.919,216.131z"/>
      </g>
      <path style="fill:#3F4342;" d="M258.668,298.197H236.77c-0.687,0-1.244-0.557-1.244-1.244l0,0c0-0.687,0.557-1.244,1.244-1.244 h21.897c0.687,0,1.244,0.557,1.244,1.244l0,0C259.912,297.64,259.355,298.197,258.668,298.197z"/>
    </g>
  </g>
</svg>