<?xml version="1.0" encoding="utf-8"?>
<svg viewBox="287.8117 96.1894 65.0771 117.7057" xmlns="http://www.w3.org/2000/svg">
  <g transform="matrix(0.9999999999999999, 0, 0, 0.9999999999999999, -82.32714203487546, -89.00261057917191)">
    <g>
      <path style="fill:#2CBDC1;" d="M430.676,230.735V209.65c0-1.533-0.54-3.016-1.525-4.19l-0.986-1.175l-0.041-3.773 c0-8.461-6.859-15.32-15.32-15.32h-20.255c-8.461,0-15.32,6.859-15.32,15.32l-0.987,91.677c0,3.53,2.315,6.642,5.695,7.658 l0.966,0.29c12.253,3.681,27.293,3.681,39.546,0l0.966-0.29c1.931-0.58,3.493-1.857,4.496-3.492v0.052l2.236-3.898 c0.293-0.484,0.448-1.04,0.448-1.606v-21.265c0-1.223-0.081-2.445-0.241-3.657l-1.66-12.52l-0.217-20.106L430.676,230.735z"/>
      <path style="fill:#109B97;" d="M385.212,238.63l-3.374-22.477l-4.014-19.864c-0.385,1.343-0.603,2.757-0.603,4.223l-0.04,3.784 l-0.977,1.164c-0.985,1.174-1.525,2.658-1.525,4.19v21.085l2.194,2.615l-0.213,20.075l-1.665,12.555 c-0.161,1.212-0.241,2.434-0.241,3.657v21.265c0,0.566,0.155,1.121,0.448,1.606l2.236,3.898l0-0.071 c0.624,1.015,1.461,1.894,2.476,2.551l4.202-5.434l1.479-12.379L385.212,238.63z"/>
      <g>
        <path style="fill:#FFD70E;" d="M377.833,196.288l2.476-0.907c4.038-1.479,7.526-4.158,9.996-7.678l1.745-2.487 C385.277,185.435,379.624,190.038,377.833,196.288z"/>
      </g>
      <g>
        <path style="fill:#FFD70E;" d="M427.58,196.288l-2.476-0.907c-4.038-1.479-7.526-4.158-9.996-7.678l-1.745-2.487 C420.135,185.435,425.789,190.038,427.58,196.288z"/>
      </g>
      <path style="fill:#456168;" d="M383.716,210.129"/>
      <path style="fill:#3F4342;" d="M420.135,238.624l-2.706-0.651c-9.581-2.304-19.568-2.326-29.159-0.064l-3.057,0.721 c-0.646,0.152-1.277-0.303-1.337-0.964l-2.033-21.514c-0.045-0.503,0.293-0.96,0.787-1.064l7.144-1.507 c8.626-1.82,17.539-1.805,26.158,0.046l6.795,1.459c0.492,0.106,0.828,0.562,0.783,1.064l-2.033,21.512 C421.417,238.324,420.783,238.78,420.135,238.624z"/>
      <path style="fill:#343434;" d="M395.994,212.599c-2.084,0.225-4.161,0.548-6.22,0.983l-7.144,1.507 c-0.494,0.104-0.832,0.561-0.786,1.064l2.033,21.514c0.06,0.661,0.691,1.116,1.337,0.964l3.058-0.721 c2.551-0.602,5.131-1.037,7.723-1.315V212.599z"/>
      <path style="fill:#343434;" d="M382.63,218.791l7.144-1.508c8.626-1.82,17.539-1.804,26.158,0.046l6.795,1.459 c0.204,0.044,0.371,0.158,0.505,0.3l0.278-2.939c0.045-0.501-0.291-0.958-0.783-1.064l-6.795-1.459 c-8.619-1.851-17.532-1.866-26.158-0.046l-7.144,1.507c-0.494,0.104-0.832,0.561-0.786,1.064l0.278,2.939 C382.256,218.949,382.424,218.835,382.63,218.791z"/>
      <path style="fill:#343434;" d="M379.361,230.608l2.325,6.007c0.883,2.282,1.349,4.703,1.376,7.15l0.28,30.678 c0.014,1.326-0.265,2.639-0.817,3.845l-3.227,3.089c-0.083,0.181-0.355,0.122-0.354-0.077l0.058-50.625 C379.002,230.469,379.286,230.416,379.361,230.608z"/>
      <polygon style="fill:#13ABAC;" points="378.969,261.439 383.237,262.932 383.223,261.35 378.971,259.836 &#9;&#9;&#9;"/>
      <path style="fill:#3F4342;" d="M425.992,230.608l-2.325,6.007c-0.883,2.282-1.349,4.703-1.376,7.15l-0.28,30.678 c-0.014,1.326,0.265,2.639,0.817,3.845l3.227,3.089c0.083,0.181,0.355,0.122,0.354-0.077l-0.058-50.625 C426.351,230.469,426.066,230.416,425.992,230.608z"/>
      <polygon style="fill:#2CBDC1;" points="422.116,262.932 426.384,261.439 426.382,259.836 422.13,261.35 &#9;&#9;&#9;"/>
      <g>
        <path style="fill:#3F4342;" d="M421.246,293.453l-7.161,1.106c-7.561,1.168-15.256,1.168-22.816,0l-7.161-1.106 c-0.335-0.052-0.569-0.359-0.53-0.695l1.281-11.133c0.041-0.358,0.374-0.609,0.73-0.55l4.787,0.799 c8.145,1.359,16.458,1.359,24.603,0l4.787-0.799c0.356-0.059,0.689,0.191,0.73,0.55l1.281,11.133 C421.815,293.094,421.581,293.401,421.246,293.453z"/>
        <path style="fill:#343434;" d="M414.086,284.315l6.602-1.02l-0.192-1.672c-0.041-0.358-0.374-0.609-0.73-0.55l-4.787,0.799 c-8.145,1.359-16.458,1.359-24.603,0l-4.787-0.799c-0.356-0.059-0.689,0.191-0.73,0.55l-0.192,1.672l6.602,1.02 C398.83,285.483,406.525,285.483,414.086,284.315z"/>
        <path style="fill:#343434;" d="M395.995,282.584c-1.879-0.169-3.754-0.4-5.619-0.711l-4.787-0.799 c-0.356-0.059-0.689,0.191-0.73,0.55l-1.281,11.133c-0.039,0.337,0.195,0.644,0.53,0.695l7.161,1.106 c1.57,0.242,3.147,0.422,4.726,0.564V282.584z"/>
      </g>
      <path style="fill:#3F4342;" d="M411.927,276.931h-18.5c-1.482,0-2.684-1.202-2.684-2.684v-28.197 c0-1.482,1.202-2.684,2.684-2.684h18.5c1.482,0,2.684,1.202,2.684,2.684v28.197C414.611,275.73,413.41,276.931,411.927,276.931z"/>
      <path style="fill:#343434;" d="M411.927,243.367h-18.5c-1.482,0-2.684,1.202-2.684,2.684v2.169c0-1.482,1.202-2.684,2.684-2.684 h18.5c1.482,0,2.684,1.202,2.684,2.684v-2.169C414.611,244.568,413.41,243.367,411.927,243.367z"/>
      <path style="fill:#343434;" d="M409.267,249.948h-13.179c-0.67,0-1.214-0.543-1.214-1.214l0,0c0-0.67,0.543-1.214,1.214-1.214 h13.179c0.67,0,1.214,0.544,1.214,1.214l0,0C410.481,249.404,409.937,249.948,409.267,249.948z"/>
      <g>
        <path style="fill:#109B97;" d="M380.431,233.37l-6.756,2.568c-1.35,0.51-2.858-0.172-3.367-1.522l0,0 c-0.51-1.35,0.172-2.858,1.522-3.367l6.757-2.568L380.431,233.37z"/>
        <path style="fill:#2CBDC1;" d="M424.887,233.432l6.796,2.47c1.351,0.508,2.857-0.175,3.365-1.526l0,0 c0.508-1.351-0.175-2.857-1.526-3.365l-6.796-2.47L424.887,233.432z"/>
      </g>
      <path style="fill:#E76957;" d="M376.665,294.752c0.814,2.402,2.744,4.334,5.272,5.094l0.966,0.29 c2.243,0.674,4.58,1.221,6.976,1.649C388.172,297.074,380.553,295.338,376.665,294.752z"/>
      <path style="fill:#F9948A;" d="M428.907,294.752c-0.814,2.402-2.744,4.334-5.272,5.094l-0.966,0.29 c-2.243,0.674-4.58,1.221-6.976,1.649C417.4,297.074,425.02,295.338,428.907,294.752z"/>
    </g>
  </g>
</svg>