<?xml version="1.0" encoding="utf-8"?>
<svg viewBox="350.0097 12.4029 65.0771 117.7065" xmlns="http://www.w3.org/2000/svg">
  <g transform="matrix(0.9999999999999999, 0, 0, 0.9999999999999999, 36.97753198411361, -40.46448577142485)">
    <g transform="matrix(1, 0, 0, 1, -57.106599, 13.959372)">
      <path style="fill:#67AD1F;" d="M422.428,153.563l-0.966,0.29c-12.253,3.682-25.318,3.682-37.572,0l-0.966-0.29 c-3.381-1.016-5.695-4.128-5.695-7.658V54.228c0-8.461,6.859-15.32,15.32-15.32h20.255c8.461,0,15.32,6.859,15.32,15.32v91.677 C428.124,149.435,425.809,152.548,422.428,153.563z"/>
      <path style="fill:#518417;" d="M386.309,140.853l-1.484-49.356l-1.519-18.925l-5.663-21.907c-0.273,1.154-0.42,2.325-0.415,3.564 v91.677c0.009,2.304,1.198,4.439,2.829,5.914l4.237-6.423L386.309,140.853z"/>
      <g>
        <path style="fill:#E76957;" d="M381.69,146.138l-4.46-1.21v0.977c0,3.53,2.315,6.642,5.695,7.658l0.966,0.29 c1.824,0.548,3.668,1.005,5.523,1.389l-4.827-7.048C383.896,147.187,382.869,146.458,381.69,146.138z"/>
        <path style="fill:#F9948A;" d="M377.372,147.385c0.545,2.894,2.654,5.307,5.552,6.178l0.966,0.29 c0.905,0.272,1.814,0.52,2.727,0.749C384.223,148.505,379.51,147.508,377.372,147.385z"/>
      </g>
      <g>
        <path style="fill:#E76957;" d="M423.663,146.138l4.46-1.21v0.977c0,3.53-2.315,6.642-5.695,7.658l-0.966,0.29 c-1.824,0.548-3.668,1.005-5.523,1.389l4.827-7.048C421.457,147.187,422.484,146.458,423.663,146.138z"/>
        <path style="fill:#F9948A;" d="M427.981,147.385c-0.545,2.894-2.654,5.307-5.552,6.178l-0.966,0.29 c-0.904,0.272-1.814,0.52-2.727,0.749C421.13,148.505,425.843,147.508,427.981,147.385z"/>
      </g>
      <g>
        <path style="fill:#FFD70E;" d="M377.833,50.005l2.476-0.907c4.038-1.479,7.526-4.158,9.996-7.678l1.745-2.487 C385.277,39.153,379.624,43.755,377.833,50.005z"/>
      </g>
      <g>
        <path style="fill:#FFD70E;" d="M427.58,50.005l-2.476-0.907c-4.038-1.479-7.526-4.158-9.996-7.678l-1.745-2.487 C420.135,39.153,425.789,43.755,427.58,50.005z"/>
      </g>
      <path style="fill:#456168;" d="M383.716,63.846"/>
      <path style="fill:#3F4342;" d="M420.135,92.341l-2.706-0.651c-9.581-2.304-19.568-2.326-29.159-0.064l-3.057,0.721 c-0.646,0.152-1.277-0.303-1.337-0.964l-2.033-21.514c-0.045-0.503,0.293-0.96,0.787-1.064l7.144-1.507 c8.626-1.82,17.539-1.804,26.158,0.046l6.795,1.459c0.492,0.106,0.828,0.562,0.783,1.064l-2.033,21.511 C421.417,92.042,420.783,92.497,420.135,92.341z"/>
      <path style="fill:#343434;" d="M395.994,66.316c-2.084,0.225-4.161,0.548-6.22,0.983l-7.144,1.507 c-0.494,0.104-0.832,0.561-0.786,1.064l2.033,21.514c0.06,0.661,0.691,1.116,1.337,0.964l3.058-0.721 c2.551-0.602,5.131-1.037,7.723-1.315V66.316z"/>
      <path style="fill:#343434;" d="M382.63,72.508l7.144-1.507c8.626-1.82,17.539-1.804,26.158,0.046l6.795,1.459 c0.204,0.044,0.371,0.158,0.505,0.3l0.278-2.939c0.045-0.502-0.291-0.958-0.783-1.064l-6.795-1.459 c-8.619-1.851-17.532-1.866-26.158-0.046l-7.144,1.507c-0.494,0.104-0.832,0.561-0.786,1.064l0.278,2.939 C382.256,72.666,382.424,72.552,382.63,72.508z"/>
      <g>
        <path style="fill:#343434;" d="M396.309,61.013h-6.24c-0.649,0-1.139-0.588-1.023-1.226l1.15-6.317 c0.09-0.494,0.521-0.853,1.023-0.853h5.09c0.574,0,1.04,0.465,1.04,1.04v6.317C397.349,60.548,396.883,61.013,396.309,61.013z"/>
        <path style="fill:#343434;" d="M409.046,61.013h6.24c0.649,0,1.139-0.588,1.023-1.226l-1.15-6.317 c-0.09-0.494-0.521-0.853-1.023-0.853h-5.09c-0.574,0-1.04,0.465-1.04,1.04v6.317C408.006,60.548,408.471,61.013,409.046,61.013 z"/>
      </g>
      <path style="fill:#343434;" d="M379.361,84.325l2.325,6.007c0.883,2.282,1.349,4.703,1.376,7.15l0.28,30.678 c0.014,1.326-0.265,2.639-0.817,3.844l-3.227,7.039c-0.083,0.181-0.355,0.122-0.354-0.077l0.058-54.574 C379.002,84.186,379.286,84.133,379.361,84.325z"/>
      <polygon style="fill:#1E1E1E;" points="378.969,115.156 383.237,116.65 383.223,115.067 378.971,113.553 &#9;&#9;&#9;"/>
      <path style="fill:#3F4342;" d="M425.992,84.325l-2.325,6.007c-0.883,2.282-1.349,4.703-1.376,7.15l-0.28,30.678 c-0.014,1.326,0.265,2.639,0.817,3.844l3.227,7.039c0.083,0.181,0.355,0.122,0.354-0.077l-0.058-54.574 C426.351,84.186,426.066,84.133,425.992,84.325z"/>
      <polygon style="fill:#343434;" points="422.116,116.65 426.384,115.156 426.382,113.553 422.13,115.067 &#9;&#9;&#9;"/>
      <g>
        <path style="fill:#343434;" d="M380.431,87.088l-6.756,2.568c-1.35,0.51-2.858-0.172-3.367-1.522l0,0 c-0.51-1.35,0.172-2.858,1.522-3.367l6.757-2.568L380.431,87.088z"/>
        <path style="fill:#3F4342;" d="M424.887,87.149l6.796,2.47c1.351,0.508,2.857-0.175,3.365-1.526l0,0 c0.508-1.351-0.175-2.858-1.526-3.366l-6.796-2.47L424.887,87.149z"/>
      </g>
      <path style="fill:#343434;" d="M416.823,144.273l-13.998-0.545c-0.027-0.001-0.054-0.001-0.081,0l-13.998,0.545 c-0.467,0.018-0.864,0.345-0.972,0.799l-0.473,1.988c-0.156,0.654,0.34,1.282,1.013,1.282h14.471h14.471 c0.672,0,1.169-0.628,1.013-1.282l-0.473-1.988C417.687,144.618,417.29,144.291,416.823,144.273z"/>
      <path style="fill:#E3E5E1;" d="M392.695,138.959h-2.509c-0.654,0-1.185-0.53-1.185-1.184v-1.086c0-0.654,0.53-1.184,1.185-1.184 h2.509c0.654,0,1.185,0.53,1.185,1.184v1.086C393.879,138.429,393.349,138.959,392.695,138.959z"/>
      <path style="fill:#E3E5E1;" d="M415.436,138.959h-2.509c-0.654,0-1.185-0.53-1.185-1.184v-1.086c0-0.654,0.53-1.184,1.185-1.184 h2.509c0.654,0,1.184,0.53,1.184,1.184v1.086C416.621,138.429,416.091,138.959,415.436,138.959z"/>
      <path style="fill:#FFFFFF;" d="M421.645,144.712H383.71c-0.45,0-0.84-0.314-0.935-0.754l-1.112-5.107 c-0.13-0.597,0.325-1.161,0.936-1.161h40.159c0.611,0,1.065,0.564,0.935,1.161l-1.112,5.107 C422.484,144.398,422.095,144.712,421.645,144.712z"/>
    </g>
  </g>
</svg>