<?xml version="1.0" encoding="utf-8"?>
<svg viewBox="232.8589 96.7811 65.0792 121.6552" xmlns="http://www.w3.org/2000/svg">
  <g style="" transform="matrix(0.9999999999999999, 0, 0, 0.9319490194320676, 168.1651331210901, -69.82812604052015)">
    <g>
      <path style="fill:#343434;" d="M111.612,186.739H82.855c-2.199,0-3.982-1.783-3.982-3.982l0,0c0-2.199,1.783-3.982,3.982-3.982 h28.757c2.199,0,3.982,1.783,3.982,3.982l0,0C115.594,184.956,113.812,186.739,111.612,186.739z"/>
      <path style="fill:#E96FAB;" d="M116.986,306.262l-0.966,0.29c-12.253,3.682-25.318,3.682-37.572,0l-0.966-0.29 c-3.381-1.016-5.695-4.128-5.695-7.658V189.469c0-1.506,0.835-2.887,2.168-3.586l1.757-0.922c13.477-7.072,29.568-7.072,43.045,0 l1.757,0.922c1.333,0.7,2.168,2.081,2.168,3.586v109.135C122.681,302.134,120.366,305.246,116.986,306.262z"/>
      <path style="fill:#C64A8E;" d="M75.711,184.96l-1.757,0.922c-1.333,0.7-2.168,2.081-2.168,3.586v109.135 c0,3.53,2.314,6.642,5.695,7.658l0.966,0.29c6.127,1.841,12.456,2.762,18.786,2.762V179.656 C89.842,179.656,82.45,181.424,75.711,184.96z"/>
      <g>
        <path style="fill:#C64A8E;" d="M75.576,227.166l-7.345,2.773c-1.35,0.51-2.858-0.172-3.368-1.522l0,0 c-0.51-1.35,0.172-2.858,1.522-3.367l7.345-2.773L75.576,227.166z"/>
        <path style="fill:#E96FAB;" d="M118.891,227.138l7.349,2.763c1.351,0.508,2.857-0.175,3.365-1.526l0,0 c0.508-1.351-0.175-2.858-1.526-3.366l-7.348-2.763L118.891,227.138z"/>
      </g>
      <g>
        <path style="fill:#3F4342;" d="M113.789,244.752l-2.566-0.617c-9.085-2.185-18.555-2.206-27.649-0.061l-2.899,0.684 c-0.613,0.145-1.211-0.287-1.268-0.914l-1.928-25.337c-0.043-0.477,0.277-0.91,0.746-1.009l6.774-1.429 c8.179-1.726,16.631-1.711,24.804,0.044l6.443,1.383c0.467,0.1,0.785,0.533,0.743,1.009l-1.928,25.335 C115.005,244.468,114.403,244.899,113.789,244.752z"/>
        <path style="fill:#343434;" d="M90.897,215.137c-1.976,0.214-3.945,0.52-5.898,0.932l-6.774,1.429 c-0.468,0.099-0.789,0.532-0.746,1.009l1.928,25.337c0.057,0.627,0.655,1.058,1.268,0.914l2.899-0.684 c2.419-0.571,4.865-0.983,7.323-1.247V215.137z"/>
        <path style="fill:#343434;" d="M78.225,221.009l6.774-1.43c8.179-1.726,16.631-1.711,24.804,0.044l6.443,1.383 c0.194,0.042,0.352,0.15,0.479,0.285l0.263-2.787c0.043-0.475-0.276-0.908-0.743-1.009l-6.443-1.383 c-8.173-1.755-16.625-1.77-24.804-0.044l-6.774,1.429c-0.468,0.099-0.789,0.532-0.746,1.009l0.263,2.787 C77.87,221.158,78.03,221.05,78.225,221.009z"/>
      </g>
      <g>
        <path style="fill:#3F4342;" d="M115.803,294.844l-7.161,1.106c-7.561,1.168-15.256,1.168-22.816,0l-7.161-1.106 c-0.335-0.052-0.569-0.359-0.53-0.695l1.281-19.032c0.041-0.359,0.374-0.609,0.73-0.55l4.787,0.799 c8.145,1.359,16.458,1.359,24.603,0l4.787-0.799c0.356-0.059,0.689,0.191,0.73,0.55l1.281,19.032 C116.372,294.486,116.138,294.793,115.803,294.844z"/>
        <path style="fill:#343434;" d="M108.642,277.809l6.602-1.02l-0.192-1.672c-0.041-0.358-0.374-0.609-0.73-0.55l-4.787,0.799 c-8.145,1.359-16.458,1.359-24.603,0l-4.787-0.799c-0.356-0.059-0.689,0.191-0.73,0.55l-0.192,1.672l6.602,1.02 C93.386,278.977,101.081,278.977,108.642,277.809z"/>
        <path style="fill:#343434;" d="M90.551,276.078c-1.879-0.169-3.754-0.4-5.619-0.711l-4.787-0.799 c-0.356-0.059-0.689,0.191-0.73,0.55l-1.281,19.032c-0.039,0.336,0.195,0.643,0.53,0.695l7.161,1.106 c1.57,0.242,3.147,0.422,4.726,0.564V276.078z"/>
      </g>
      <path style="fill:#E76957;" d="M71.787,298.604c0,3.53,2.314,6.642,5.695,7.658l0.693,0.208l0,0c0-3.223-1.778-6.182-4.623-7.695 l-1.765-0.939V298.604z"/>
      <path style="fill:#F9948A;" d="M122.681,297.836l-1.765,0.939c-2.845,1.513-4.623,4.473-4.623,7.695l0,0l0.693-0.208 c3.381-1.016,5.695-4.128,5.695-7.658V297.836z"/>
      <polygon style="fill:#C64A8E;" points="122.681,189.469 116.989,220.634 122.663,222.993 &#9;&#9;&#9;"/>
      <path style="fill:#FFD70E;" d="M74.904,193.794c1.841-1.031,4.719-2.528,4.719-2.528s-0.434-4.527,2.224-8.959 c-2.089,0.736-4.144,1.608-6.136,2.653l-1.757,0.922C73.955,185.882,73.332,188.874,74.904,193.794z"/>
      <path style="fill:#FFD70E;" d="M119.5,193.794c-1.841-1.031-4.719-2.528-4.719-2.528s0.434-4.527-2.224-8.959 c2.089,0.736,4.144,1.608,6.136,2.653l1.757,0.922C120.449,185.882,121.072,188.874,119.5,193.794z"/>
      <g>
        <path style="fill:#343434;" d="M74.534,229.363l2.477,13.359c0.488,1.432,0.789,4.979,0.734,6.491l-0.926,25.215 c-0.014,0.379-0.557,0.425-0.635,0.054l-1.754-8.38c-0.953-4.552-1.337-9.205-1.143-13.852l0.622-22.796 C73.925,229.098,74.42,229.026,74.534,229.363z"/>
        <path style="fill:#3F4342;" d="M119.933,229.363l-2.477,13.359c-0.488,1.432-0.789,4.979-0.734,6.491l0.926,25.215 c0.014,0.379,0.557,0.425,0.635,0.054l1.754-8.38c0.953-4.552,1.337-9.205,1.143-13.852l-0.622-22.796 C120.543,229.098,120.048,229.026,119.933,229.363z"/>
      </g>
      <g>
        <path style="fill:#343434;" d="M102.837,247.631H91.63c-0.394,0-0.713-0.319-0.713-0.713l0,0c0-0.394,0.319-0.713,0.713-0.713 h11.207c0.394,0,0.713,0.319,0.713,0.713l0,0C103.55,247.312,103.231,247.631,102.837,247.631z"/>
        <path style="fill:#343434;" d="M102.837,250.28H91.63c-0.394,0-0.713-0.319-0.713-0.713l0,0c0-0.394,0.319-0.713,0.713-0.713 h11.207c0.394,0,0.713,0.319,0.713,0.713l0,0C103.55,249.961,103.231,250.28,102.837,250.28z"/>
        <path style="fill:#343434;" d="M102.837,252.929H91.63c-0.394,0-0.713-0.319-0.713-0.713l0,0c0-0.394,0.319-0.713,0.713-0.713 h11.207c0.394,0,0.713,0.319,0.713,0.713l0,0C103.55,252.61,103.231,252.929,102.837,252.929z"/>
      </g>
    </g>
  </g>
</svg>