<?xml version="1.0" encoding="utf-8"?>
<svg viewBox="202.0711 95.9541 65.0607 127.8383" xmlns="http://www.w3.org/2000/svg">
  <g transform="matrix(0.9999999999999999, 0, 0, 0.9999999999999999, 137.36699118266984, -231.62535440363513)">
    <g>
      <g>
        <path style="fill:#3F4342;" d="M73.664,438.342l-2.973-0.075c-1.844-0.046-3.301-1.579-3.255-3.423l0.422-16.76 c0.046-1.844,1.579-3.301,3.423-3.255l2.973,0.075c1.844,0.046,3.301,1.579,3.255,3.423l-0.422,16.76 C77.041,436.931,75.508,438.388,73.664,438.342z"/>
        <path style="fill:#3F4342;" d="M120.775,439.527l-2.973-0.075c-1.844-0.046-3.301-1.579-3.255-3.423l0.422-16.76 c0.046-1.844,1.579-3.301,3.423-3.255l2.973,0.075c1.844,0.046,3.301,1.579,3.255,3.423l-0.422,16.76 C124.152,438.116,122.619,439.574,120.775,439.527z"/>
      </g>
      <g>
        <path style="fill:#754E87;" d="M125.164,376.567l-55.689-1.401l0.774-30.757c0.24-9.531,8.161-17.064,17.692-16.824 l21.174,0.533c9.531,0.24,17.064,8.161,16.824,17.692L125.164,376.567z"/>
        <path style="fill:#754E87;" d="M121.101,439.814l-50.749-1.277c-1.364-0.034-2.498,1.044-2.532,2.408l-0.051,2.016 c-0.158,6.261,4.79,11.464,11.051,11.622l33.016,0.831c6.261,0.158,11.464-4.79,11.622-11.051l0.051-2.016 C123.543,440.982,122.465,439.848,121.101,439.814z"/>
        <path style="fill:#9768A9;" d="M116.18,450.73l-0.973,0.266c-12.342,3.372-27.377,2.994-39.534-0.995l-0.958-0.314 c-3.354-1.101-5.59-4.27-5.501-7.799l3.409-96.209c0.213-8.458,7.242-15.142,15.7-14.929l20.249,0.509 c8.458,0.213,15.142,7.242,14.929,15.7l-1.435,96.259C121.978,446.746,119.586,449.799,116.18,450.73z"/>
        <path style="fill:#754E87;" d="M79.521,432.504l-0.241-49.378l-1.042-18.957l-5.11-22.042c-0.302,1.147-0.478,2.314-0.504,3.552 l-3.409,96.209c-0.049,2.304,1.086,4.468,2.679,5.983l5.697-12.165L79.521,432.504z"/>
        <polygon style="fill:#FFFFFF;" points="122.191,433.548 123.004,378.033 120.474,374.657 117.739,361.394 76.842,361.432 &#10;&#9;&#9;&#9;&#9;&#9;73.869,373.484 71.567,376.318 69.576,432.224 72.207,430.403 72.206,430.432 77.591,435.706 114.897,436.559 119.299,431.694 &#10;&#9;&#9;&#9;&#9;&#9;119.302,431.589 &#9;&#9;&#9;&#9;"/>
        <polygon style="fill:#E3E5E1;" points="97.683,361.412 76.842,361.432 73.869,373.484 71.567,376.318 69.576,432.224 &#10;&#9;&#9;&#9;&#9;&#9;72.207,430.403 72.206,430.432 77.591,435.706 95.803,436.122 &#9;&#9;&#9;&#9;"/>
        <g>
          <path style="fill:#E76957;" d="M73.668,442.232l-4.428-1.321l-0.025,0.977c-0.089,3.529,2.147,6.698,5.501,7.799l0.958,0.314 c1.81,0.594,3.642,1.096,5.486,1.528l-4.649-7.167C75.846,443.336,74.838,442.582,73.668,442.232z"/>
          <path style="fill:#F9948A;" d="M69.32,443.371c0.472,2.907,2.52,5.372,5.395,6.316l0.958,0.314 c0.897,0.294,1.8,0.566,2.707,0.818C76.141,444.662,71.454,443.547,69.32,443.371z"/>
        </g>
        <g>
          <path style="fill:#E76957;" d="M117.602,443.338l4.489-1.097l-0.024,0.976c-0.089,3.529-2.481,6.582-5.886,7.512l-0.973,0.266 c-1.837,0.502-3.692,0.912-5.556,1.25l5.003-6.924C115.37,444.331,116.415,443.628,117.602,443.338z"/>
          <path style="fill:#F9948A;" d="M121.886,444.693c-0.618,2.88-2.787,5.239-5.706,6.036l-0.973,0.266 c-0.911,0.249-1.826,0.475-2.745,0.681C115.01,445.64,119.746,444.763,121.886,444.693z"/>
        </g>
        <g>
          <path style="fill:#FFD70E;" d="M73.333,341.472l2.498-0.844c4.074-1.377,7.629-3.967,10.186-7.424l1.807-2.442 C81.048,330.81,75.28,335.269,73.333,341.472z"/>
        </g>
        <g>
          <path style="fill:#FFD70E;" d="M123.064,342.723l-2.452-0.969c-3.999-1.58-7.419-4.346-9.8-7.927l-1.682-2.53 C115.894,331.687,121.431,336.43,123.064,342.723z"/>
        </g>
        <path style="fill:#456168;" d="M78.866,355.456"/>
        <g>
          <path style="fill:#3F4342;" d="M114.557,384.859l-2.689-0.719c-9.519-2.545-19.504-2.818-29.148-0.797l-3.075,0.644 c-0.65,0.136-1.269-0.335-1.312-0.997l-1.491-21.558c-0.033-0.504,0.317-0.952,0.813-1.044l7.18-1.327 c8.669-1.603,17.578-1.363,26.148,0.704l6.756,1.629c0.49,0.118,0.814,0.583,0.756,1.083l-2.573,21.453 C115.846,384.591,115.2,385.031,114.557,384.859z"/>
          <path style="fill:#343434;" d="M91.078,358.234c-2.089,0.173-4.173,0.443-6.243,0.826l-7.18,1.327 c-0.496,0.092-0.846,0.54-0.813,1.044l1.491,21.558c0.043,0.662,0.663,1.133,1.312,0.997l3.075-0.644 c2.566-0.537,5.155-0.907,7.754-1.121L91.078,358.234z"/>
          <path style="fill:#343434;" d="M77.562,364.089l7.18-1.327c8.669-1.603,17.578-1.363,26.149,0.704l6.756,1.629 c0.203,0.049,0.367,0.167,0.498,0.313l0.351-2.931c0.058-0.5-0.267-0.965-0.756-1.083l-6.756-1.629 c-8.57-2.067-17.479-2.307-26.148-0.704l-7.18,1.327c-0.496,0.092-0.846,0.54-0.813,1.044l0.204,2.945 C77.185,364.237,77.356,364.127,77.562,364.089z"/>
        </g>
        <g>
          <path style="fill:#3F4342;" d="M114.35,437.24l-7.187,0.926c-7.588,0.977-15.28,0.784-22.809-0.574l-7.131-1.286 c-0.333-0.06-0.56-0.373-0.512-0.708l1.561-11.097c0.05-0.357,0.389-0.6,0.744-0.531l4.765,0.919 c8.108,1.564,16.419,1.773,24.595,0.619l4.805-0.678c0.357-0.05,0.684,0.209,0.716,0.568l1.001,11.162 C114.928,436.896,114.686,437.197,114.35,437.24z"/>
          <path style="fill:#343434;" d="M107.421,427.926l6.626-0.853l-0.15-1.676c-0.032-0.359-0.359-0.618-0.716-0.568l-4.805,0.678 c-8.176,1.154-16.487,0.945-24.595-0.619l-4.765-0.919c-0.354-0.068-0.693,0.174-0.744,0.531l-0.234,1.666l6.575,1.186 C92.141,428.71,99.834,428.903,107.421,427.926z"/>
          <path style="fill:#343434;" d="M89.38,425.74c-1.874-0.216-3.742-0.494-5.599-0.852l-4.765-0.919 c-0.354-0.068-0.693,0.174-0.744,0.531l-1.561,11.098c-0.047,0.335,0.179,0.648,0.512,0.708l7.131,1.286 c1.563,0.282,3.135,0.501,4.71,0.683L89.38,425.74z"/>
        </g>
        <path style="fill:#343434;" d="M73.997,375.819l2.174,6.063c0.826,2.303,1.231,4.736,1.196,7.182l-0.492,30.676 c-0.019,1.326-0.331,2.631-0.914,3.823l-3.403,6.955c-0.088,0.179-0.358,0.113-0.352-0.087l1.431-54.555 C73.642,375.672,73.927,375.626,73.997,375.819z"/>
        <polygon style="fill:#1E1E1E;" points="72.83,406.631 77.059,408.231 77.084,406.649 72.872,405.028 &#9;&#9;&#9;&#9;"/>
        <path style="fill:#3F4342;" d="M120.614,376.992l-2.476,5.946c-0.94,2.259-1.467,4.668-1.556,7.113l-1.052,30.662 c-0.048,1.325,0.198,2.645,0.72,3.864l3.049,7.118c0.078,0.183,0.352,0.131,0.356-0.069l1.315-54.558 C120.976,376.863,120.693,376.802,120.614,376.992z"/>
        <polygon style="fill:#343434;" points="115.925,409.209 120.229,407.823 120.268,406.221 115.979,407.628 &#9;&#9;&#9;&#9;"/>
        <g>
          <path style="fill:#754E87;" d="M75.591,378.418l-7.412,2.587c-1.363,0.475-2.853-0.243-3.328-1.606l0,0 c-0.476-1.362,0.243-2.853,1.606-3.328l7.412-2.587L75.591,378.418z"/>
          <path style="fill:#9768A9;" d="M118.893,379.48l7.277,2.947c1.337,0.542,2.861-0.103,3.403-1.441l0,0 c0.542-1.338-0.104-2.861-1.441-3.403l-7.277-2.947L118.893,379.48z"/>
        </g>
      </g>
    </g>
  </g>
</svg>