<?xml version="1.0" encoding="utf-8"?>
<svg viewBox="173.0764 133.1467 65.0792 122.2935" xmlns="http://www.w3.org/2000/svg">
  <g transform="matrix(0.9999999999999999, 0, 0, 0.9999999999999999, 108.38254708621714, 96.53174734907962)">
    <g>
      <path style="fill:#D33225;" d="M116.985,155.857l-0.966,0.29c-12.253,3.682-25.318,3.682-37.572,0l-0.966-0.29 c-3.381-1.016-5.695-4.128-5.695-7.658V51.935c0-8.461,6.859-15.32,15.32-15.32h20.255c8.461,0,15.32,6.859,15.32,15.32v96.264 C122.68,151.729,120.365,154.841,116.985,155.857z"/>
      <path style="fill:#961411;" d="M80.865,138.559l-1.484-49.356l-1.519-18.925l-5.663-21.907c-0.273,1.154-0.42,2.325-0.415,3.564 v96.264c0.009,2.304,1.198,4.439,2.829,5.914l4.237-6.423L80.865,138.559z"/>
      <path style="fill:#343434;" d="M97.233,134.645L97.233,134.645c-0.617,0-1.117-0.5-1.117-1.117v-1.341 c0-0.617,0.5-1.117,1.117-1.117l0,0c0.617,0,1.117,0.5,1.117,1.117v1.341C98.35,134.145,97.85,134.645,97.233,134.645z"/>
      <g>
        <g>
          <path style="fill:#343434;" d="M73.917,82.031l2.325,6.007c0.883,2.282,1.349,4.703,1.376,7.15l0.28,30.678 c0.014,1.326-0.265,2.639-0.817,3.844l-3.227,7.039c-0.083,0.181-0.355,0.122-0.354-0.077l0.058-54.574 C73.559,81.893,73.843,81.84,73.917,82.031z"/>
          <path style="fill:#BA2719;" d="M79.006,113.211l-6.439-2.294v1.61l6.554,2.294C79.121,114.821,79.006,112.981,79.006,113.211z"/>
        </g>
        <g>
          <path style="fill:#3F4342;" d="M120.549,82.031l-2.325,6.007c-0.883,2.282-1.349,4.703-1.376,7.15l-0.28,30.678 c-0.014,1.326,0.265,2.639,0.817,3.844l3.227,7.039c0.083,0.181,0.355,0.122,0.354-0.077l-0.058-54.574 C120.907,81.893,120.623,81.84,120.549,82.031z"/>
          <path style="fill:#D33225;" d="M115.459,113.211l6.439-2.294v1.61l-6.554,2.294 C115.344,114.821,115.459,112.981,115.459,113.211z"/>
        </g>
      </g>
      <g>
        <path style="fill:#A51B14;" d="M75.576,84.59l-7.345,2.773c-1.35,0.51-2.858-0.172-3.368-1.522l0,0 c-0.51-1.35,0.172-2.858,1.522-3.367l7.345-2.773L75.576,84.59z"/>
        <path style="fill:#D33225;" d="M118.891,84.562l7.349,2.763c1.351,0.508,2.857-0.175,3.365-1.526l0,0 c0.508-1.351-0.175-2.858-1.526-3.365l-7.348-2.763L118.891,84.562z"/>
      </g>
      <g>
        <path style="fill:#E76957;" d="M76.246,148.432l-4.46-1.21v0.977c0,3.53,2.315,6.642,5.695,7.658l0.966,0.29 c1.824,0.548,3.668,1.004,5.523,1.389l-4.827-7.048C78.452,149.481,77.425,148.751,76.246,148.432z"/>
        <path style="fill:#F9948A;" d="M71.929,149.679c0.545,2.894,2.654,5.307,5.552,6.178l0.966,0.29 c0.904,0.272,1.814,0.52,2.727,0.749C78.78,150.798,74.067,149.802,71.929,149.679z"/>
      </g>
      <g>
        <path style="fill:#E76957;" d="M118.22,148.432l4.46-1.21v0.977c0,3.53-2.315,6.642-5.695,7.658l-0.966,0.29 c-1.824,0.548-3.668,1.004-5.523,1.389l4.827-7.048C116.014,149.481,117.041,148.751,118.22,148.432z"/>
        <path style="fill:#F9948A;" d="M122.537,149.679c-0.545,2.894-2.654,5.307-5.552,6.178l-0.966,0.29 c-0.904,0.272-1.814,0.52-2.727,0.749C115.686,150.798,120.399,149.802,122.537,149.679z"/>
      </g>
      <g>
        <path style="fill:#FFD70E;" d="M72.389,47.711l2.476-0.907c4.038-1.479,7.526-4.158,9.996-7.678l1.745-2.487 C79.834,36.859,74.18,41.461,72.389,47.711z"/>
      </g>
      <g>
        <path style="fill:#FFD70E;" d="M122.136,47.711l-2.476-0.907c-4.038-1.479-7.526-4.158-9.996-7.678l-1.745-2.487 C114.691,36.859,120.345,41.461,122.136,47.711z"/>
      </g>
      <path style="fill:#456168;" d="M78.273,61.552"/>
      <g>
        <path style="fill:#3F4342;" d="M114.692,90.048l-2.706-0.651c-9.58-2.304-19.568-2.326-29.159-0.064l-3.058,0.721 c-0.646,0.152-1.277-0.303-1.337-0.964L76.4,67.577c-0.045-0.503,0.293-0.96,0.786-1.064l7.144-1.507 c8.626-1.82,17.539-1.804,26.158,0.046l6.795,1.459c0.492,0.106,0.828,0.562,0.783,1.064l-2.033,21.511 C115.974,89.748,115.339,90.203,114.692,90.048z"/>
        <path style="fill:#343434;" d="M90.551,64.022c-2.084,0.225-4.161,0.548-6.22,0.983l-7.144,1.507 c-0.494,0.104-0.832,0.561-0.786,1.064l2.033,21.514c0.06,0.661,0.691,1.116,1.337,0.964l3.058-0.721 c2.551-0.602,5.131-1.037,7.723-1.315V64.022z"/>
        <path style="fill:#343434;" d="M77.186,70.215l7.144-1.507c8.626-1.82,17.539-1.804,26.158,0.046l6.795,1.459 c0.204,0.044,0.371,0.158,0.506,0.3l0.278-2.939c0.045-0.502-0.291-0.958-0.783-1.064l-6.795-1.459 c-8.619-1.851-17.532-1.866-26.158-0.046l-7.144,1.507c-0.494,0.104-0.832,0.561-0.786,1.064l0.278,2.939 C76.813,70.372,76.981,70.258,77.186,70.215z"/>
      </g>
      <g>
        <path style="fill:#3F4342;" d="M115.802,147.7l-7.161,1.106c-7.561,1.168-15.256,1.168-22.816,0l-7.161-1.106 c-0.335-0.052-0.569-0.359-0.53-0.695l1.281-11.133c0.041-0.358,0.374-0.609,0.73-0.55l4.787,0.799 c8.145,1.359,16.458,1.359,24.603,0l4.787-0.799c0.356-0.059,0.689,0.191,0.73,0.55l1.281,11.133 C116.371,147.341,116.137,147.648,115.802,147.7z"/>
        <path style="fill:#343434;" d="M108.641,138.563l6.602-1.02l-0.192-1.672c-0.041-0.358-0.374-0.609-0.73-0.55l-4.787,0.799 c-8.145,1.359-16.458,1.359-24.603,0l-4.787-0.799c-0.356-0.059-0.689,0.191-0.73,0.55l-0.192,1.672l6.602,1.02 C93.385,139.731,101.081,139.731,108.641,138.563z"/>
        <path style="fill:#343434;" d="M90.551,136.831c-1.879-0.169-3.754-0.4-5.619-0.711l-4.787-0.799 c-0.356-0.059-0.689,0.191-0.73,0.55l-1.281,11.133c-0.039,0.336,0.195,0.643,0.53,0.695l7.161,1.106 c1.57,0.242,3.147,0.422,4.726,0.564V136.831z"/>
      </g>
      <g>
        <path style="fill:#3F4342;" d="M91.356,62.118c0,0.353-0.286,0.639-0.639,0.639c-0.353,0-0.639-0.286-0.639-0.639 c0-0.353,0.286-0.639,0.639-0.639C91.07,61.479,91.356,61.765,91.356,62.118z"/>
        <circle style="fill:#3F4342;" cx="103.75" cy="62.118" r="0.639"/>
      </g>
    </g>
  </g>
</svg>