<?xml version="1.0" encoding="utf-8"?>
<svg viewBox="266.6764 80.3484 65.0771 120.4023" xmlns="http://www.w3.org/2000/svg">
  <g transform="matrix(0.9999999999999999, 0, 0, 0.9999999999999999, -103.46241151485457, -250.9486426554417)">
    <g>
      <g>
        <path style="fill:#343434;" d="M378.379,436.87L378.379,436.87c-1.808,0-3.275-1.466-3.275-3.274v-16.372 c0-1.808,1.466-3.274,3.275-3.274l0,0c1.808,0,3.274,1.466,3.274,3.274v16.372C381.653,435.404,380.187,436.87,378.379,436.87z"/>
        <path style="fill:#343434;" d="M426.976,436.87L426.976,436.87c-1.809,0-3.275-1.466-3.275-3.274v-16.372 c0-1.808,1.466-3.274,3.275-3.274l0,0c1.808,0,3.274,1.466,3.274,3.274v16.372C430.251,435.404,428.785,436.87,426.976,436.87z"/>
      </g>
      <path style="fill:#961411;" d="M430.974,381.186h-56.593v-34.231c0-8.647,7.01-15.658,15.658-15.658h25.277 c8.647,0,15.658,7.01,15.658,15.658V381.186z"/>
      <path style="fill:#D33225;" d="M422.428,448.647l-0.966,0.29c-12.253,3.682-25.318,3.682-37.572,0l-0.966-0.29 c-3.381-1.016-5.695-4.128-5.695-7.658v-91.677c0-8.461,6.859-15.319,15.32-15.319h20.255c8.461,0,15.32,6.859,15.32,15.319 v91.677C428.124,444.519,425.809,447.632,422.428,448.647z"/>
      <path style="fill:#FFD70E;" d="M395.057,451.245c1.948,0.229,3.904,0.369,5.862,0.421V333.993h-5.862V451.245z"/>
      <path style="fill:#FFD70E;" d="M404.436,451.667c1.958-0.053,3.914-0.193,5.862-0.422V333.993h-5.862V451.667z"/>
      <path style="fill:#961411;" d="M416.855,435.11h-34.899l-2.074,11.803c0.859,0.776,1.882,1.386,3.043,1.734l0.966,0.29 c12.253,3.683,25.319,3.683,37.572,0l0.966-0.29c0.481-0.145,0.933-0.342,1.367-0.566l-3.193-10.216 C420.091,436.226,418.573,435.11,416.855,435.11z"/>
      <path style="fill:#961411;" d="M386.309,435.937l-1.484-49.356l-1.519-18.925l-5.663-21.907c-0.273,1.154-0.42,2.325-0.415,3.563 v91.677c0.009,2.304,1.198,4.439,2.829,5.914l4.237-6.423L386.309,435.937z"/>
      <g>
        <path style="fill:#E76957;" d="M381.69,441.222l-4.46-1.21v0.977c0,3.53,2.315,6.642,5.695,7.658l0.966,0.29 c1.824,0.548,3.668,1.004,5.523,1.389l-4.827-7.048C383.896,442.271,382.869,441.542,381.69,441.222z"/>
        <path style="fill:#F9948A;" d="M377.372,442.469c0.545,2.894,2.654,5.307,5.552,6.178l0.966,0.29 c0.905,0.272,1.814,0.52,2.727,0.75C384.223,443.589,379.51,442.592,377.372,442.469z"/>
      </g>
      <g>
        <path style="fill:#E76957;" d="M423.663,441.222l4.46-1.21v0.977c0,3.53-2.315,6.642-5.695,7.658l-0.966,0.29 c-1.824,0.548-3.668,1.004-5.523,1.389l4.827-7.048C421.457,442.271,422.484,441.542,423.663,441.222z"/>
        <path style="fill:#F9948A;" d="M427.981,442.469c-0.545,2.894-2.654,5.307-5.552,6.178l-0.966,0.29 c-0.904,0.272-1.814,0.52-2.727,0.75C421.13,443.589,425.843,442.592,427.981,442.469z"/>
      </g>
      <path style="fill:#456168;" d="M383.716,358.93"/>
      <path style="fill:#3F4342;" d="M420.135,387.425l-2.706-0.651c-9.581-2.304-19.568-2.326-29.159-0.064l-3.057,0.721 c-0.646,0.152-1.277-0.303-1.337-0.964l-2.033-21.514c-0.045-0.503,0.293-0.96,0.787-1.064l7.144-1.507 c8.626-1.82,17.539-1.804,26.158,0.046l6.795,1.459c0.492,0.106,0.828,0.562,0.783,1.064l-2.033,21.512 C421.417,387.126,420.783,387.581,420.135,387.425z"/>
      <path style="fill:#343434;" d="M395.994,361.4c-2.084,0.225-4.161,0.548-6.22,0.983l-7.144,1.507 c-0.494,0.104-0.832,0.561-0.786,1.064l2.033,21.514c0.06,0.661,0.691,1.116,1.337,0.964l3.058-0.721 c2.551-0.602,5.131-1.037,7.723-1.315V361.4z"/>
      <path style="fill:#343434;" d="M382.63,367.592l7.144-1.508c8.626-1.82,17.539-1.804,26.158,0.046l6.795,1.459 c0.204,0.044,0.371,0.158,0.505,0.3l0.278-2.939c0.045-0.501-0.291-0.958-0.783-1.064l-6.795-1.459 c-8.619-1.851-17.532-1.866-26.158-0.046l-7.144,1.507c-0.494,0.104-0.832,0.561-0.786,1.064l0.278,2.939 C382.256,367.75,382.424,367.636,382.63,367.592z"/>
      <path style="fill:#343434;" d="M379.361,379.409l2.325,6.007c0.883,2.282,1.349,4.703,1.376,7.15l0.28,30.678 c0.014,1.326-0.265,2.639-0.817,3.844l-3.227,7.039c-0.083,0.181-0.355,0.122-0.354-0.078l0.058-54.574 C379.002,379.27,379.286,379.217,379.361,379.409z"/>
      <polygon style="fill:#961411;" points="378.969,410.24 383.237,411.734 383.223,410.151 378.971,408.637 &#9;&#9;&#9;"/>
      <path style="fill:#3F4342;" d="M425.992,379.409l-2.325,6.007c-0.883,2.282-1.349,4.703-1.376,7.15l-0.28,30.678 c-0.014,1.326,0.265,2.639,0.817,3.844l3.227,7.039c0.083,0.181,0.355,0.122,0.354-0.078l-0.058-54.574 C426.351,379.27,426.066,379.217,425.992,379.409z"/>
      <polygon style="fill:#D33225;" points="422.116,411.734 426.384,410.24 426.382,408.637 422.13,410.151 &#9;&#9;&#9;"/>
      <g>
        <path style="fill:#961411;" d="M380.431,382.172l-6.756,2.568c-1.35,0.51-2.858-0.172-3.367-1.522l0,0 c-0.51-1.35,0.172-2.858,1.522-3.367l6.757-2.568L380.431,382.172z"/>
        <path style="fill:#D33225;" d="M424.887,382.233l6.796,2.47c1.351,0.508,2.857-0.175,3.365-1.526l0,0 c0.508-1.351-0.175-2.858-1.526-3.366l-6.796-2.47L424.887,382.233z"/>
      </g>
      <path style="fill:#343434;" d="M416.823,439.357l-13.998-0.545c-0.027-0.001-0.054-0.001-0.081,0l-13.998,0.545 c-0.467,0.018-0.864,0.345-0.972,0.799l-0.473,1.988c-0.156,0.654,0.34,1.282,1.013,1.282h14.471h14.471 c0.672,0,1.169-0.628,1.013-1.282l-0.473-1.988C417.687,439.702,417.29,439.375,416.823,439.357z"/>
      <path style="fill:#FFD70E;" d="M377.292,348.077h4.565c0,0,1.042-9.556,9.339-9.556v-4.46 C383.777,334.712,377.886,340.643,377.292,348.077z"/>
      <path style="fill:#FFD70E;" d="M428.124,348.077h-4.565c0,0-1.042-9.556-9.339-9.556v-4.46 C421.638,334.712,427.529,340.643,428.124,348.077z"/>
    </g>
  </g>
</svg>