<?xml version="1.0" encoding="utf-8"?>
<svg viewBox="225.6121 64.804 65.0801 121.2979" xmlns="http://www.w3.org/2000/svg">
  <g transform="matrix(0.9999999999999999, 0, 0, 0.9317630529403685, 10.16226974371478, 34.36138585748351)" style="">
    <g>
      <path style="fill:#FFD70E;" d="M267.742,159.277l-0.966,0.29c-12.253,3.682-25.318,3.682-37.572,0l-0.966-0.29 c-3.381-1.016-5.695-4.128-5.695-7.658V42.484c0-1.505,0.835-2.887,2.168-3.586l1.757-0.922c13.477-7.072,29.568-7.072,43.045,0 l1.757,0.922c1.333,0.7,2.168,2.081,2.168,3.586v109.135C273.437,155.149,271.122,158.261,267.742,159.277z"/>
      <path style="fill:#FFFFFF;" d="M240.103,161.841c1.696,0.207,3.398,0.349,5.103,0.422V32.755 c-1.709,0.103-3.412,0.31-5.103,0.602V161.841z"/>
      <path style="fill:#FFFFFF;" d="M250.773,162.263c1.705-0.073,3.407-0.216,5.103-0.422V33.358c-1.692-0.292-3.395-0.5-5.103-0.602 V162.263z"/>
      <path style="fill:#D1A900;" d="M228.235,73.652l-5.176-33.133c-0.186,0.335-0.323,0.696-0.408,1.074l-0.108,1.247v108.779 c0,2.803,1.463,5.338,3.757,6.774l2.037-3.76l1.085-12.444l2.01-12.378V94.966l-0.321-4.009L228.235,73.652z"/>
      <g>
        <path style="fill:#D1A900;" d="M226.332,80.181l-7.345,2.773c-1.35,0.51-2.858-0.172-3.368-1.522l0,0 c-0.51-1.35,0.172-2.858,1.522-3.367l7.345-2.773L226.332,80.181z"/>
        <path style="fill:#FFD70E;" d="M269.647,80.153l7.349,2.763c1.351,0.508,2.858-0.175,3.366-1.526l0,0 c0.508-1.351-0.175-2.858-1.526-3.366l-7.348-2.763L269.647,80.153z"/>
      </g>
      <g>
        <path style="fill:#3F4342;" d="M264.545,94.96l-2.566-0.617c-9.085-2.185-18.556-2.206-27.65-0.06l-2.899,0.684 c-0.613,0.145-1.211-0.287-1.268-0.914l-1.928-20.4c-0.043-0.477,0.277-0.91,0.746-1.009l6.774-1.429 c8.179-1.726,16.631-1.711,24.804,0.044l6.443,1.383c0.467,0.1,0.785,0.533,0.743,1.008l-1.928,20.398 C265.761,94.676,265.159,95.108,264.545,94.96z"/>
        <path style="fill:#343434;" d="M241.653,70.281c-1.976,0.214-3.945,0.52-5.898,0.932l-6.774,1.429 c-0.468,0.099-0.789,0.532-0.746,1.009l1.928,20.4c0.056,0.627,0.655,1.059,1.268,0.914l2.899-0.684 c2.419-0.571,4.865-0.983,7.323-1.247V70.281z"/>
        <path style="fill:#343434;" d="M228.981,76.153l6.774-1.429c8.179-1.726,16.631-1.711,24.804,0.044l6.443,1.383 c0.193,0.042,0.352,0.149,0.479,0.285l0.263-2.787c0.043-0.476-0.276-0.908-0.743-1.008l-6.443-1.383 c-8.173-1.755-16.625-1.77-24.804-0.044l-6.774,1.429c-0.468,0.099-0.789,0.532-0.746,1.009l0.263,2.787 C228.626,76.303,228.786,76.195,228.981,76.153z"/>
      </g>
      <g>
        <path style="fill:#3F4342;" d="M266.559,142.189l-7.161,1.106c-7.561,1.168-15.256,1.168-22.816,0l-7.161-1.106 c-0.335-0.052-0.569-0.359-0.53-0.695l1.281-11.133c0.041-0.359,0.374-0.609,0.73-0.55l4.787,0.799 c8.145,1.359,16.458,1.359,24.603,0l4.787-0.799c0.356-0.059,0.689,0.191,0.73,0.55l1.281,11.133 C267.128,141.831,266.894,142.138,266.559,142.189z"/>
        <path style="fill:#343434;" d="M259.398,133.052l6.602-1.02l-0.192-1.672c-0.041-0.358-0.374-0.609-0.73-0.55l-4.787,0.799 c-8.145,1.359-16.458,1.359-24.603,0l-4.787-0.799c-0.356-0.059-0.689,0.191-0.73,0.55l-0.192,1.672l6.602,1.02 C244.142,134.22,251.837,134.22,259.398,133.052z"/>
        <path style="fill:#343434;" d="M241.307,131.321c-1.879-0.169-3.754-0.4-5.619-0.711l-4.787-0.799 c-0.356-0.059-0.689,0.191-0.73,0.55l-1.281,11.133c-0.039,0.337,0.195,0.643,0.53,0.695l7.161,1.106 c1.57,0.243,3.147,0.423,4.726,0.564V131.321z"/>
      </g>
      <path style="fill:#E76957;" d="M222.543,151.619c0,3.53,2.314,6.642,5.695,7.658l0.693,0.208l0,0 c0-3.223-1.778-6.182-4.623-7.696l-1.765-0.939V151.619z"/>
      <path style="fill:#F9948A;" d="M273.437,150.851l-1.765,0.939c-2.845,1.513-4.623,4.473-4.623,7.696l0,0l0.693-0.208 c3.38-1.016,5.695-4.128,5.695-7.658V150.851z"/>
      <path style="fill:#3F4342;" d="M266.605,154.029l-3.22,0.833c-10.098,2.613-20.694,2.613-30.792,0l-3.22-0.833 c-0.453-0.117-0.917,0.152-1.038,0.605l-1.085,4.029c-0.124,0.461,0.154,0.934,0.617,1.05l5.199,1.301 c9.797,2.452,20.048,2.452,29.845,0l5.199-1.301c0.463-0.116,0.741-0.589,0.617-1.05l-1.085-4.029 C267.522,154.181,267.059,153.911,266.605,154.029z"/>
      <polygon style="fill:#EBC300;" points="273.437,42.484 267.745,73.649 273.419,76.009 &#9;&#9;&#9;"/>
      <g>
        <path style="fill:#343434;" d="M225.933,89.543l2.33,5.976c0.459,1.178,0.691,2.432,0.683,3.696l-0.151,23.793 c-0.014,2.251-1.188,4.335-3.105,5.515l0,0c-0.754,0.464-1.724-0.089-1.709-0.974l0.648-37.773 C224.643,89.036,225.665,88.854,225.933,89.543z"/>
        <path style="fill:#343434;" d="M270.047,89.543l-2.33,5.976c-0.459,1.178-0.691,2.432-0.683,3.696l0.151,23.793 c0.014,2.251,1.188,4.335,3.105,5.515l0,0c0.754,0.464,1.724-0.089,1.709-0.974l-0.648-37.773 C271.337,89.036,270.315,88.854,270.047,89.543z"/>
      </g>
      <g>
        <path style="fill:#E76957;" d="M224.046,38.455c1.627-1.053,4.246-2.539,7.232-3.432c0.847-0.253,1.723,0.31,1.874,1.181 l0.065,0.372c0.06,0.347-0.093,0.695-0.389,0.885l-8.363,5.356c-0.482,0.309-1.126,0.078-1.302-0.467l-0.235-0.725 C222.543,40.436,222.997,39.134,224.046,38.455z"/>
        <path style="fill:#F9948A;" d="M271.934,38.455c-1.627-1.053-4.246-2.539-7.232-3.432c-0.847-0.253-1.723,0.31-1.874,1.181 l-0.065,0.372c-0.06,0.347,0.093,0.695,0.389,0.885l8.363,5.356c0.482,0.309,1.126,0.078,1.302-0.467l0.235-0.725 C273.437,40.436,272.983,39.134,271.934,38.455z"/>
      </g>
    </g>
  </g>
</svg>